<svg width="842" height="584" viewBox="0 0 842 584" fill="none" xmlns="http://www.w3.org/2000/svg">
<g clip-path="url(#clip0)">
<path d="M165.008 98.0665C181.241 98.0665 194.399 85.3627 194.399 69.6916C194.399 54.0206 181.241 41.3167 165.008 41.3167C148.776 41.3167 135.617 54.0206 135.617 69.6916C135.617 85.3627 148.776 98.0665 165.008 98.0665Z" fill="#2F2E41"/>
<path d="M75.4906 411.303L93.5478 350.844L99.695 352.699C99.695 352.699 92.3953 397.95 80.8694 409.449L75.4906 411.303Z" fill="#2F2E41"/>
<path d="M144.262 86.7537C144.262 86.7537 146.567 110.492 141.188 117.169C135.809 123.845 144.646 136.827 144.646 136.827L160.782 155.373L184.602 144.987L188.06 125.7L185.755 112.347C185.755 112.347 177.687 104.558 181.145 90.4628C184.602 76.3681 144.262 86.7537 144.262 86.7537Z" fill="#FFB9B9"/>
<path opacity="0.1" d="M144.262 86.7537C144.262 86.7537 146.567 110.492 141.188 117.169C135.809 123.845 144.646 136.827 144.646 136.827L160.782 155.373L184.602 144.987L188.06 125.7L185.755 112.347C185.755 112.347 177.687 104.558 181.145 90.4628C184.602 76.3681 144.262 86.7537 144.262 86.7537Z" fill="black"/>
<path d="M158.093 530.738V545.945L179.224 550.025L177.303 524.803L158.093 530.738Z" fill="#FFB9B9"/>
<path d="M221.486 524.803L216.875 545.945L226.096 552.25L242.232 540.753L240.311 522.577L221.486 524.803Z" fill="#FFB9B9"/>
<path d="M181.145 548.17C181.145 548.17 173.077 535.004 158.093 543.256C158.093 543.256 155.404 557.814 152.714 558.927C150.025 560.04 135.041 581.182 152.714 583.036C170.387 584.891 179.224 579.327 179.224 579.327C179.224 579.327 175.766 582.199 181.145 580.716C186.523 579.232 184.218 571.072 184.218 571.072L181.145 548.17Z" fill="#F11C1C"/>
<path d="M233.78 539.268C233.78 539.268 221.87 547.429 219.949 543.719C218.028 540.01 214.954 540.381 214.954 540.381C214.954 540.381 204.197 579.532 211.112 581.386C215.565 582.445 220.243 582.212 224.559 580.716C224.559 580.716 233.78 574.482 233.78 579.303C233.78 584.125 259.521 583.778 270.278 583.407C281.036 583.036 275.273 575.247 275.273 575.247L261.058 561.894L244.921 539.269C244.921 539.269 237.622 532.963 233.78 539.268Z" fill="#F11C1C"/>
<path d="M120.442 291.127L136.578 440.605C136.578 440.605 145.414 531.85 146.951 533.334C148.488 534.818 158.477 539.639 180.376 533.334L175.382 413.9L184.602 339.717L205.733 390.903C205.733 390.903 210.728 528.512 214.186 528.512C217.643 528.512 238.774 535.188 243.769 527.028C248.763 518.868 247.995 430.962 247.995 430.962C247.995 430.962 245.69 292.24 228.785 287.789C211.88 283.338 120.442 291.127 120.442 291.127Z" fill="#2F2E41"/>
<path d="M165.008 100.477C179.649 100.477 191.518 89.0191 191.518 74.8844C191.518 60.7498 179.649 49.2914 165.008 49.2914C150.368 49.2914 138.499 60.7498 138.499 74.8844C138.499 89.0191 150.368 100.477 165.008 100.477Z" fill="#FFB9B9"/>
<path d="M166.545 146.1C166.545 146.1 163.856 130.151 163.856 127.183C163.856 124.216 151.946 122.361 151.946 122.361C151.946 122.361 142.725 112.347 140.804 113.83C138.883 115.314 109.684 134.231 105.074 136.827C100.463 139.423 95.4688 150.551 95.853 151.293C96.2372 152.034 120.057 200.253 120.057 200.253C120.057 200.253 130.431 229.926 123.131 245.505C115.831 261.083 106.611 291.869 120.057 298.174C133.504 304.48 198.818 318.204 210.728 306.335C222.638 294.465 231.09 291.127 234.164 291.127C237.237 291.127 221.485 239.57 224.943 234.748C228.401 229.926 223.406 199.882 223.406 199.882L241.079 152.035C241.079 152.035 239.543 125.329 204.581 119.394L183.665 109.604L166.545 146.1Z" fill="#F11C1C"/>
<path d="M94.7004 297.804C94.7004 297.804 92.7794 315.607 92.7794 320.8C92.7794 325.993 83.5587 356.408 97.0055 360.117C110.452 363.826 109.3 319.687 109.3 319.687V297.062L94.7004 297.804Z" fill="#FFB9B9"/>
<path d="M254.142 281.112C254.142 281.112 256.447 298.175 255.295 301.884C254.142 305.593 266.436 337.862 249.916 339.717C233.395 341.571 237.622 301.142 237.622 301.142V281.113L254.142 281.112Z" fill="#FFB9B9"/>
<path d="M91.2427 405.369L102.384 348.248H105.842C108.26 351.257 109.846 354.81 110.45 358.573C111.055 362.336 110.659 366.186 109.3 369.761C104.69 382.372 100.848 405.369 100.848 405.369H91.2427Z" fill="#2F2E41"/>
<path d="M101.616 146.842L95.853 151.293C95.853 151.293 88.1691 269.243 90.0901 278.145C92.0111 287.047 83.1745 299.658 90.8585 300.771C98.5424 301.884 107.763 306.706 111.989 303.738C116.215 300.771 116.984 290.014 118.521 287.418C120.057 284.822 122.747 254.036 122.747 254.036C122.747 254.036 130.815 223.25 125.82 200.253C120.826 177.257 116.215 153.889 116.215 153.889L101.616 146.842Z" fill="#F11C1C"/>
<path d="M223.406 137.569L241.079 152.034L254.526 227.701C254.526 227.701 262.979 286.676 256.447 287.418C249.916 288.16 239.927 286.305 235.701 287.418C231.474 288.531 228.017 285.564 228.017 285.564C228.017 285.564 223.406 261.825 223.406 261.454C223.406 261.083 220.333 234.006 220.333 234.006L216.491 203.592L222.254 170.209L223.406 137.569Z" fill="#F11C1C"/>
<path d="M140.036 487.711C140.036 487.711 137.538 494.636 134.096 504.065C132.498 508.449 130.696 513.379 128.84 518.405C127.645 521.654 126.431 524.944 125.236 528.156C123.331 533.293 121.479 538.226 119.861 542.462C117.725 548.052 115.993 552.432 115.063 554.476C110.837 563.749 33.6131 548.912 27.466 545.203C21.3188 541.494 19.782 528.883 19.0136 511.079C19.0098 510.986 19.0059 510.894 19.0059 510.801C18.9061 507.207 19.855 501.854 21.4418 495.575C22.2332 492.437 23.186 489.069 24.2464 485.571C25.6679 480.879 27.2816 475.961 28.9681 471.065C36.2141 450.034 44.7548 429.478 44.7548 429.478C44.7548 429.478 59.7385 419.463 65.1172 412.787C70.496 406.11 100.079 400.918 100.079 400.918C108.532 401.288 127.741 432.816 135.425 442.46C143.109 452.104 140.036 487.711 140.036 487.711Z" fill="#3F3D56"/>
<path d="M97.0056 431.333C98.9153 431.333 100.463 429.838 100.463 427.994C100.463 426.151 98.9153 424.656 97.0056 424.656C95.0959 424.656 93.5478 426.151 93.5478 427.994C93.5478 429.838 95.0959 431.333 97.0056 431.333Z" fill="#2F2E41"/>
<path d="M102.384 433.558C103.445 433.558 104.305 432.728 104.305 431.703C104.305 430.679 103.445 429.849 102.384 429.849C101.323 429.849 100.463 430.679 100.463 431.703C100.463 432.728 101.323 433.558 102.384 433.558Z" fill="#2F2E41"/>
<path d="M134.096 504.065C132.498 508.449 130.696 513.379 128.84 518.405L24.2464 485.571C25.668 480.879 27.2816 475.961 28.9682 471.065L134.096 504.065Z" fill="#F2F2F2"/>
<path d="M125.236 528.156C123.331 533.293 121.479 538.226 119.861 542.462L19.006 510.801C18.9061 507.207 19.855 501.854 21.4418 495.575L125.236 528.156Z" fill="#F2F2F2"/>
<path d="M97.0056 428.736C97.0056 428.736 104.69 461.377 100.079 490.308C95.4688 519.239 111.605 546.316 111.605 546.316" stroke="#2F2E41" stroke-width="3" stroke-miterlimit="10"/>
<path d="M102.384 431.333C102.384 431.333 87.4007 484.002 87.0165 491.421C86.6323 498.839 80.4851 551.88 72.8012 557.443" stroke="#2F2E41" stroke-width="3" stroke-miterlimit="10"/>
<path d="M144.657 59.267C144.657 59.267 138.656 44.2047 147.357 39.2805L149.757 45.9427C149.757 45.9427 171.659 33.1977 177.36 36.0943L171.959 43.0461C171.959 43.0461 197.462 43.0461 199.262 52.6049L190.261 52.8945C190.261 52.8945 199.862 58.9773 200.163 68.8257L180.96 69.9844L190.261 75.1982C190.261 75.1982 155.458 79.8327 147.057 66.5085L144.657 59.267Z" fill="#2F2E41"/>
<path d="M139.459 59.8624C139.459 59.8624 146.375 73.2153 155.596 69.8771C164.816 66.5388 155.596 54.2987 155.596 54.2987L149.448 51.3314L139.459 59.8624Z" fill="#2F2E41"/>
<path d="M735.802 270.518L610.402 119.233C604.708 124.26 597.693 127.68 590.122 129.119C566.514 133.608 543.459 118.044 538.627 94.3561C536.961 86.5222 537.543 78.3979 540.31 70.86C543.077 63.3221 547.924 56.6569 554.328 51.5838L511.57 3.05176e-05L267.975 200.992L492.207 471.51L735.802 270.518Z" fill="#F2F2F2"/>
<path d="M579.988 121.932C599.513 121.932 615.34 106.651 615.34 87.8018C615.34 68.9523 599.513 53.6718 579.988 53.6718C560.464 53.6718 544.636 68.9523 544.636 87.8018C544.636 106.651 560.464 121.932 579.988 121.932Z" fill="#F2F2F2"/>
<path d="M358.784 239.879L347.967 251.965L384.409 282.365L395.226 270.279L358.784 239.879Z" fill="#6C63FF"/>
<path d="M593.047 456.009L582.23 468.095L614.532 495.041L625.349 482.956L593.047 456.009Z" fill="#6C63FF"/>
<path d="M651.412 365.993V366.93C651.39 369.283 651.32 371.626 651.203 373.957C649.1 413.866 631.267 451.487 601.358 479.111C571.449 506.734 531.73 522.268 490.34 522.53C448.95 522.791 409.023 507.76 378.742 480.516C348.462 453.273 330.121 415.88 327.477 376.002C327.257 372.69 327.147 369.354 327.147 365.993C327.088 333.573 337.51 301.944 356.959 275.516C358.514 273.386 360.132 271.295 361.812 269.244C362.97 267.817 364.161 266.422 365.364 265.038C392.733 233.735 431.721 214.035 473.962 210.166C516.203 206.296 558.333 218.564 591.313 244.338C593.265 245.861 595.184 247.437 597.059 249.044C598.559 250.333 600.033 251.65 601.482 252.995C630.01 279.34 647.57 314.85 650.85 352.832C651.225 357.176 651.412 361.563 651.412 365.993Z" fill="#3F3D56"/>
<path d="M489.279 542.219C388.628 542.219 306.742 463.164 306.742 365.993C306.683 321.534 324.088 278.708 355.447 246.151L359.49 249.773C329.078 281.346 312.199 322.878 312.257 365.993C312.257 460.228 391.669 536.895 489.279 536.895C512.996 536.972 536.484 532.411 558.325 523.487C580.167 514.562 599.909 501.459 616.362 484.968L620.322 488.674C603.356 505.679 582.998 519.19 560.476 528.393C537.955 537.595 513.735 542.299 489.279 542.219Z" fill="#F11C1C"/>
<path d="M515.75 538.492H469.426V583.214H515.75V538.492Z" fill="#F11C1C"/>
<path d="M361.812 269.244C361.892 269.276 361.966 269.319 362.033 269.372C362.904 270.064 361.812 271.395 361.944 272.492C362.099 273.897 364.04 274.206 365.507 274.344C366.974 274.493 368.827 275.633 368.132 276.889C364.448 278.114 360.72 276.911 356.959 275.516C337.51 301.944 327.088 333.573 327.147 365.993C327.147 369.357 327.257 372.694 327.477 376.002C327.786 376.219 328.124 376.395 328.481 376.524C329.584 376.928 330.864 376.854 331.878 377.429C332.683 377.887 333.224 378.696 334.029 379.122C336.334 380.336 339.533 378.004 341.683 379.452C342.239 379.941 342.766 380.46 343.261 381.007C345.246 382.668 348.511 381.55 350.805 382.795C352.283 383.594 353.044 385.191 353.838 386.639C355.812 390.26 359.011 393.816 363.235 394.104C364.567 394.045 365.902 394.087 367.228 394.231C368.529 394.519 369.809 395.616 369.599 396.883C369.235 399.066 370.349 401.451 370.051 403.634C369.511 407.627 363.654 409.373 363.158 413.366C363.156 414.245 363.105 415.123 363.003 415.996C362.739 417.04 361.922 417.892 361.636 418.935C361.084 420.905 362.551 422.875 364.15 424.195C365.761 425.526 367.68 426.676 368.562 428.529C369.489 430.499 369.036 432.788 369.334 434.929C369.996 439.603 374.176 443.064 378.478 445.3C379.856 445.856 381.08 446.717 382.051 447.813C383.154 449.357 383.044 451.391 383.419 453.233C384.323 457.737 388.25 461.453 388.36 466.042C388.437 469.311 386.562 472.272 385.437 475.349C384.28 478.575 383.936 482.021 384.434 485.401C390.722 490.55 397.407 495.231 404.43 499.403C404.812 498.858 405.092 498.252 405.257 497.614C405.391 496.908 405.298 496.18 404.993 495.525C404.688 494.871 404.184 494.322 403.548 493.951C404.733 493.519 405.811 492.851 406.713 491.992C407.156 491.552 407.449 490.991 407.551 490.386C407.654 489.78 407.561 489.159 407.286 488.606C409.228 488.84 411.533 488.957 412.812 487.52C413.838 486.37 413.772 484.645 413.364 483.186C412.804 481.768 412.433 480.286 412.261 478.777C416.758 478.989 421.266 478.843 425.739 478.341C425.092 476.235 423.62 474.455 421.636 473.379C423.665 473.049 425.507 470.706 426.147 468.821C426.7 466.899 426.73 464.871 426.235 462.933C426.082 462.435 426.059 461.908 426.169 461.4C426.495 460.724 427.069 460.19 427.779 459.898C431.132 458.035 434.485 456.175 437.838 454.319C438.436 454.027 438.981 453.642 439.448 453.179C440.496 451.976 440.342 450.177 439.801 448.697C439.261 447.216 438.401 445.822 438.191 444.267C437.573 439.614 442.735 436.27 444.478 431.883C445.07 430.132 445.39 428.305 445.426 426.463C445.57 424.483 445.581 422.193 444.015 420.926C442.504 419.702 440.154 419.979 438.577 418.839C437.132 417.796 436.636 415.783 435.059 414.942C433.625 414.175 431.838 414.665 430.239 414.303C427.437 413.675 425.673 410.555 422.805 410.268C421.195 410.097 419.364 410.864 418.04 409.959C416.871 409.15 416.827 407.542 416.606 406.179C416.215 404.056 415.159 402.099 413.582 400.573C412.005 399.046 409.981 398.022 407.783 397.639C406.117 397.383 404.309 397.479 402.886 396.595C401.452 395.701 400.801 394.029 399.665 392.783C397.856 390.792 394.989 390.079 392.309 389.472C388.669 388.652 385.033 387.828 381.4 387.001C379.47 386.554 376.978 386.32 375.93 387.96C375.62 388.583 375.404 389.247 375.29 389.93C374.896 391.159 374.11 392.236 373.045 393.008C371.979 393.781 370.689 394.209 369.356 394.231C368.444 392.728 366.967 391.622 365.231 391.144C364.097 390.96 362.977 390.704 361.878 390.377C361.304 390.105 360.794 389.724 360.378 389.255C359.962 388.787 359.65 388.241 359.46 387.652C359.27 387.063 359.206 386.443 359.273 385.829C359.34 385.216 359.536 384.622 359.849 384.084C360.474 383.003 360.715 381.754 360.534 380.529C360.352 379.303 359.759 378.169 358.845 377.301C356.992 375.693 354.312 375.299 351.819 375.459C351.169 374.085 352.261 372.541 353.43 371.54C354.61 370.55 356.033 369.57 356.286 368.08C356.694 365.737 353.595 363.959 351.246 364.651C348.897 365.354 347.397 367.558 346.404 369.73C345.923 371.012 345.266 372.226 344.452 373.34C344.035 373.891 343.468 374.32 342.814 374.579C342.16 374.839 341.444 374.918 340.746 374.809C338.805 374.33 338.066 372.105 337.636 370.231C336.946 367.726 336.598 365.145 336.599 362.553C336.616 359.936 337.692 357.429 339.599 355.568C342.808 352.714 347.75 352.991 352.084 353.449C351.62 352.851 351.397 352.111 351.458 351.366C351.519 350.621 351.859 349.923 352.415 349.403C352.995 348.906 353.692 348.553 354.446 348.374C355.199 348.196 355.986 348.198 356.739 348.381C358.045 348.642 359.223 349.321 360.081 350.308C361.316 351.756 361.669 353.726 362.595 355.366C363.533 357.016 365.628 358.422 367.338 357.538C368.827 356.771 369.059 354.791 368.695 353.204C368.32 351.628 367.536 350.084 367.669 348.466C367.923 345.389 371.242 343.525 374.165 342.258C377.088 340.991 380.43 339.277 380.893 336.21C380.915 335.613 381.034 335.024 381.246 334.464C381.57 333.963 382.022 333.552 382.559 333.271C391.084 327.83 399.765 322.314 409.515 319.343C410.022 319.184 410.077 319.354 410.595 319.237C411.323 318.832 410.838 317.714 410.143 317.267C409.448 316.82 408.522 316.468 408.345 315.68C408.224 315.105 408.577 314.53 408.665 313.945C408.688 313.591 408.621 313.237 408.47 312.914C408.318 312.591 408.087 312.309 407.796 312.093C407.506 311.876 407.164 311.732 406.802 311.672C406.441 311.613 406.069 311.64 405.72 311.751C404.937 310.75 406.481 309.59 407.739 309.249C411.504 308.253 415.367 307.646 419.265 307.439C419.714 307.367 420.176 307.442 420.577 307.652C420.864 307.919 421.034 308.281 421.052 308.665C421.071 309.05 420.936 309.426 420.676 309.717C420.146 310.286 419.558 310.804 418.923 311.261C418.29 311.855 417.838 312.604 417.616 313.429C417.395 314.253 417.412 315.12 417.665 315.936C419.706 316.937 421.912 317.97 424.173 317.618C426.423 317.267 428.419 314.818 427.36 312.869C426.379 311.048 423.412 310.633 422.904 308.642C422.309 306.31 425.728 304.234 424.956 301.955C424.625 300.954 423.588 300.358 422.794 299.644C421.859 298.756 421.224 297.616 420.97 296.374C420.716 295.132 420.856 293.845 421.371 292.68C420.08 292.898 418.754 292.815 417.503 292.437C416.252 292.059 415.112 291.398 414.18 290.508C412.459 288.836 411.092 286.185 408.643 286.27C406.404 286.334 404.474 288.858 402.378 288.091C401.86 287.899 401.32 287.516 400.823 287.74C400.66 287.841 400.522 287.978 400.421 288.138C400.319 288.298 400.257 288.479 400.239 288.666C399.709 291.126 400.625 293.926 399.235 296.056C397.724 298.367 394.228 298.686 392.397 300.773C391.404 301.902 391.018 303.424 390.103 304.617C389.187 305.81 387.257 306.576 386.154 305.533C386.694 304.464 386.842 303.249 386.574 302.089C386.305 300.928 385.636 299.889 384.676 299.144C383.66 298.5 382.563 297.985 381.412 297.611C380.125 297.086 378.901 296.429 377.761 295.651C377.193 295.317 376.731 294.838 376.426 294.267C376.185 293.549 376.217 292.771 376.514 292.074C377.073 290.536 378.055 289.174 379.355 288.134C380.655 287.095 382.224 286.417 383.893 286.174C385.349 285.983 387.048 286.047 388.018 284.971C388.525 284.407 388.79 283.544 389.54 283.321C390.013 283.225 390.504 283.282 390.941 283.48C392.761 284.098 394.57 284.716 396.389 285.333C396.996 285.602 397.667 285.709 398.331 285.642C398.66 285.601 398.96 285.441 399.171 285.193C399.382 284.946 399.488 284.631 399.467 284.311C399.29 283.438 397.901 283.023 398.033 282.139C398.097 281.85 398.256 281.589 398.485 281.393C400.452 279.373 402.857 277.798 405.529 276.78C408.2 275.762 411.071 275.327 413.937 275.505C414.621 276.602 413.54 277.89 412.625 278.817C411.72 279.754 410.992 281.415 412.095 282.128C412.54 282.353 413.038 282.464 413.54 282.448C414.881 282.621 416.185 283.002 417.401 283.576C419.287 284.364 421.14 285.237 422.948 286.174C422.682 285.033 422.728 283.844 423.081 282.724C423.28 282.175 423.684 281.717 424.214 281.439C424.744 281.162 425.363 281.085 425.948 281.223C427.029 281.628 427.581 283.012 428.739 283.14C430.272 283.31 430.879 281.117 430.239 279.754C429.599 278.391 428.32 277.262 428.22 275.761C428.143 274.76 428.54 273.514 427.713 272.907C427.419 272.719 427.082 272.602 426.732 272.566C419.805 271.342 412.875 270.114 405.941 268.882C404.706 268.658 402.93 268.829 402.875 270.032C402.842 270.713 403.47 271.384 403.195 272.002C402.897 272.662 401.926 272.609 401.22 272.843C400.69 273.075 400.252 273.468 399.974 273.962C399.695 274.456 399.591 275.023 399.676 275.58C399.865 276.687 400.31 277.739 400.978 278.657C399.621 278.114 397.581 278.018 396.224 277.464C396.027 275.948 395.626 274.462 395.033 273.045C394.999 272.82 394.914 272.604 394.785 272.414C394.655 272.223 394.484 272.062 394.283 271.943C394.082 271.823 393.857 271.747 393.622 271.72C393.388 271.694 393.15 271.717 392.926 271.789C391.14 272.055 389.353 272.311 387.566 272.577C387.117 272.597 386.688 272.758 386.342 273.035C385.647 273.748 386.331 274.887 386.309 275.867C386.244 276.415 386.004 276.93 385.623 277.34C385.241 277.75 384.737 278.036 384.18 278.156C383.057 278.376 381.899 278.362 380.783 278.114C378.279 277.741 375.787 277.368 373.283 276.996C375.493 276.316 377.458 275.046 378.952 273.333C379.945 272.204 380.474 270.096 379.04 269.563C378.617 269.451 378.175 269.419 377.739 269.468C374.342 269.489 371.661 266.752 368.485 265.592C367.486 265.232 366.43 265.045 365.364 265.038L361.812 269.244Z" fill="#6C63FF"/>
<path d="M651.203 373.957C650.814 374.461 650.303 374.866 649.714 375.135C649.126 375.404 648.478 375.53 647.828 375.501C644.375 375.214 642.92 370.412 639.5 369.869C639.198 369.794 638.878 369.824 638.596 369.954C638.089 370.22 638 370.88 637.967 371.434C637.824 374.181 637.703 377.035 638.817 379.569C640.438 383.274 644.64 386.384 643.758 390.313C639.015 388.194 636.545 383.051 635.431 378.121C634.306 373.191 634.129 368.016 632.122 363.352C630.589 365.237 627.39 363.682 626 361.701C624.677 359.827 623.861 357.655 622.581 355.749C621.302 353.854 619.339 352.15 617 352.044C614.541 351.937 612.401 353.566 610.526 355.11C608.895 356.273 607.525 357.744 606.5 359.433C605.188 361.989 605.53 364.992 605.464 367.835C605.397 370.901 604.725 374.149 602.552 376.406C600.379 378.653 596.375 379.441 593.982 377.407C592.825 376.243 592 374.808 591.589 373.244C588.987 365.923 586.821 358.464 585.103 350.904C584.706 352.629 583.129 354.855 581.629 353.843C581.294 353.568 581.023 353.226 580.835 352.842C578.033 348.274 572.861 345.527 567.622 343.876C562.394 342.237 556.89 341.47 551.717 339.66C548.816 338.643 546.045 337.31 543.456 335.688C542.799 336.623 542.415 337.712 542.345 338.84C542.275 339.969 542.522 341.094 543.059 342.098C543.64 343.081 544.542 343.85 545.623 344.287C546.704 344.724 547.904 344.805 549.037 344.515C550.184 344.153 551.155 343.387 552.291 343.003C553.427 342.631 554.96 342.812 555.456 343.876C555.941 344.888 555.213 346.113 555.577 347.177C556.118 348.785 558.644 348.913 559.526 350.382C559.785 350.964 559.845 351.611 559.696 352.228C559.547 352.845 559.198 353.4 558.699 353.811C557.684 354.61 556.564 355.276 555.368 355.792C551.662 357.783 549.026 361.18 545.783 363.82C542.541 366.472 537.963 368.399 534.103 366.706C535.018 362.202 529.471 358.901 528.445 354.418C528.103 352.938 528.28 351.373 527.805 349.935C527.11 347.848 525.191 346.421 523.625 344.845C521.722 342.911 520.24 340.628 519.264 338.132C518.289 335.636 517.84 332.977 517.945 330.311C518.033 328.458 518.386 326.573 517.945 324.763C517.515 322.964 515.96 321.217 514.041 321.292C509.662 321.484 504.136 321.803 501.842 318.193C501.015 316.905 500.662 315.02 501.853 314.03C502.319 313.745 502.838 313.552 503.382 313.463C503.925 313.373 504.481 313.388 505.018 313.508C508.316 313.817 511.603 314.136 514.901 314.445C517.206 314.658 519.699 314.839 521.684 313.678C523.669 312.518 524.529 309.419 522.688 308.046C521.353 307.045 518.949 307.098 518.552 305.511C518.232 304.18 519.754 302.679 518.927 301.561C518.342 300.773 517.018 300.986 516.213 301.582C515.511 302.286 514.747 302.931 513.93 303.509C512.353 304.297 510.478 303.541 508.779 303.03C507.081 302.519 504.809 302.477 503.993 303.999C503.066 305.692 504.798 307.928 503.893 309.632C502.68 311.879 498.599 310.601 496.901 312.539C494.96 314.754 498.224 318.076 497.574 320.908C496.736 321.31 495.804 321.494 494.871 321.444C493.937 321.393 493.033 321.11 492.246 320.621C491.475 320.114 490.86 319.415 490.467 318.597C490.075 317.78 489.92 316.874 490.018 315.978C490.173 314.701 490.868 313.391 490.404 312.188C489.905 311.258 489.08 310.53 488.077 310.133C484.879 308.418 481.68 306.711 478.482 305.011C477.588 306.608 478.713 308.578 480.125 309.781C481.526 310.974 483.29 311.879 484.217 313.455C484.804 314.547 484.936 315.814 484.588 316.998C484.239 318.181 483.436 319.191 482.342 319.822C482.203 319.914 482.046 319.976 481.88 320.004C481.715 320.031 481.545 320.024 481.382 319.982C481.229 319.895 481.096 319.78 480.99 319.643C480.884 319.506 480.807 319.35 480.765 319.183C479.077 314.999 476.529 310.878 472.47 308.695C468.401 306.502 462.566 306.959 459.897 310.633C459.268 311.506 458.838 312.507 458.287 313.433C455.364 318.342 449.077 320.663 443.209 320.514C442.635 320.55 442.064 320.42 441.566 320.142C440.617 319.513 440.662 318.172 440.805 317.064C441.015 315.499 441.213 313.945 441.423 312.379C441.428 311.424 441.81 310.506 442.492 309.813C443.584 308.982 445.151 309.504 446.54 309.483C447.589 309.438 448.598 309.081 449.429 308.462C450.26 307.842 450.873 306.99 451.184 306.022C451.463 305.045 451.461 304.013 451.177 303.037C450.893 302.061 450.339 301.179 449.573 300.485C448.945 299.91 448.095 299.186 448.426 298.409C448.561 298.195 448.742 298.012 448.957 297.872C449.172 297.732 449.417 297.639 449.673 297.6C452.154 296.908 454.79 296.727 457.228 295.896C459.676 295.076 462.048 293.394 462.632 290.955C462.809 290.21 462.886 289.305 463.581 288.932C463.932 288.796 464.306 288.724 464.684 288.719C466.01 288.536 467.217 287.88 468.068 286.881C468.919 285.882 469.352 284.612 469.283 283.321C470.452 282.533 472.095 283.118 473.232 283.959C474.357 284.801 475.36 285.908 476.739 286.27C479.309 286.952 481.79 284.747 484.46 284.737C485.585 284.737 486.743 285.12 487.79 284.747C488.86 284.375 489.5 283.353 490.316 282.597C491.143 281.83 492.577 281.372 493.338 282.192C493.118 280.648 492.908 279.115 492.687 277.581C493.987 277.897 495.341 277.941 496.66 277.709C497.978 277.478 499.23 276.977 500.331 276.24C497.552 275.334 494.783 274.429 492.004 273.524C491.712 273.455 491.442 273.316 491.221 273.12C490.614 272.491 491.221 271.512 491.706 270.798C492.886 269.084 493.085 266.262 491.143 265.41C489.82 264.825 488.309 265.528 487.04 266.209C485.011 267.295 482.982 268.392 480.952 269.478C480.765 270.596 482.176 271.235 483.048 271.98C483.579 272.435 483.955 273.034 484.126 273.699C484.297 274.364 484.256 275.064 484.008 275.706C483.76 276.347 483.316 276.902 482.735 277.295C482.154 277.689 481.463 277.904 480.754 277.911C481.153 278.415 481.431 278.999 481.567 279.62C481.702 280.241 481.692 280.883 481.537 281.5C480.18 281.596 478.812 281.691 477.445 281.787C477.218 281.831 476.984 281.831 476.757 281.787C476.53 281.743 476.314 281.656 476.121 281.532C475.68 281.159 475.746 280.499 475.636 279.945C475.454 279.283 475.071 278.689 474.537 278.239C474.002 277.79 473.34 277.505 472.636 277.422C471.231 277.269 469.808 277.396 468.456 277.794C467.868 277.994 467.224 277.979 466.647 277.752C466.32 277.542 466.072 277.236 465.941 276.878C465.701 276.148 465.66 275.371 465.823 274.621C465.985 273.871 466.345 273.174 466.868 272.598C467.927 271.462 469.094 270.425 470.353 269.499C473.207 267.087 475.304 263.952 476.408 260.448C478.658 259.533 480.985 258.297 483.246 257.382C485.064 256.568 486.969 255.951 488.927 255.54C490.769 255.268 492.636 255.182 494.496 255.284C497.033 255.327 499.581 255.369 502.118 255.423C504.382 255.331 506.645 255.645 508.791 256.349C510.875 257.179 512.717 258.979 512.86 261.151C512.904 261.399 512.881 261.653 512.794 261.89C512.707 262.126 512.559 262.338 512.364 262.503C512.071 262.66 511.739 262.734 511.405 262.716C509.298 262.78 508.404 263.291 506.298 263.366C507.632 264.74 509.132 266.188 511.074 266.433C514.493 266.859 516.952 263.441 518.53 260.47C518.586 261.226 518.946 261.931 519.533 262.434C520.121 262.937 520.889 263.199 521.673 263.164C522.518 263.023 523.325 262.719 524.044 262.269C530.828 258.69 538.427 256.795 546.158 256.754C546.082 256.188 546.227 255.616 546.563 255.148C546.899 254.68 547.403 254.349 547.978 254.219C549.555 253.921 550.967 255.231 551.728 256.594C552.478 257.957 552.952 259.533 554.166 260.555C555.368 261.577 557.695 261.524 558.169 260.054C558.633 258.638 557.1 257.424 555.831 256.583C554.552 255.753 553.217 254.209 554.077 252.973C560.563 251.579 567.103 250.194 573.754 249.917C574.884 249.95 576.01 249.762 577.063 249.364C577.584 249.151 578.018 248.777 578.297 248.302C578.576 247.826 578.685 247.275 578.607 246.734C577.156 247.061 575.636 246.964 574.242 246.456C572.848 245.948 571.641 245.051 570.776 243.88C577.603 243.337 584.75 242.858 591.313 244.338L597.059 249.044C595.967 250.141 594.511 251.174 595.305 252.271C595.567 252.523 595.885 252.714 596.235 252.83C596.584 252.946 596.957 252.984 597.324 252.941C598.714 252.963 600.103 252.995 601.482 252.995C630.01 279.34 647.57 314.85 650.85 352.831C648.534 352.746 646.405 355.579 646.703 358.049C647.056 360.913 649.195 363.213 650.728 365.684C650.982 366.085 651.211 366.501 651.412 366.93L651.203 373.957Z" fill="#6C63FF"/>
<path d="M0 583.085H842" stroke="#3F3D56" stroke-width="2" stroke-miterlimit="10"/>
<path d="M347.375 73.2563C355.102 73.2563 361.366 67.2088 361.366 59.7489C361.366 52.2889 355.102 46.2414 347.375 46.2414C339.647 46.2414 333.383 52.2889 333.383 59.7489C333.383 67.2088 339.647 73.2563 347.375 73.2563Z" stroke="#3F3D56" stroke-width="2" stroke-miterlimit="10"/>
<path d="M760.789 330.488C768.516 330.488 774.78 324.441 774.78 316.981C774.78 309.521 768.516 303.473 760.789 303.473C753.062 303.473 746.798 309.521 746.798 316.981C746.798 324.441 753.062 330.488 760.789 330.488Z" stroke="#3F3D56" stroke-width="2" stroke-miterlimit="10"/>
<path d="M665.274 195.922C673.001 195.922 679.265 189.875 679.265 182.415C679.265 174.955 673.001 168.907 665.274 168.907C657.547 168.907 651.283 174.955 651.283 182.415C651.283 189.875 657.547 195.922 665.274 195.922Z" stroke="#3F3D56" stroke-width="2" stroke-miterlimit="10"/>
<path d="M573.478 311.681C582.149 311.681 589.179 304.894 589.179 296.523C589.179 288.151 582.149 281.364 573.478 281.364C564.806 281.364 557.776 288.151 557.776 296.523C557.776 304.894 564.806 311.681 573.478 311.681Z" fill="#3F3D56"/>
<path d="M623.913 267.782C635.344 267.782 644.61 258.836 644.61 247.801C644.61 236.765 635.344 227.819 623.913 227.819C612.483 227.819 603.216 236.765 603.216 247.801C603.216 258.836 612.483 267.782 623.913 267.782Z" fill="white"/>
<path d="M644.845 227.086C639.29 221.854 631.809 218.967 624.049 219.06C616.289 219.153 608.885 222.218 603.466 227.581C592.181 238.749 576.07 295.148 576.07 295.148C576.07 295.148 634.072 278.202 645.357 267.034C650.776 261.671 653.767 254.449 653.671 246.958C653.575 239.466 650.4 232.318 644.845 227.086ZM614.444 257.171C612.525 255.363 611.203 253.046 610.647 250.513C610.092 247.98 610.326 245.345 611.322 242.941C612.318 240.537 614.029 238.471 616.241 237.006C618.452 235.541 621.064 234.742 623.745 234.71C626.427 234.678 629.058 235.415 631.307 236.826C633.555 238.238 635.319 240.262 636.376 242.641C637.433 245.021 637.735 247.65 637.245 250.195C636.754 252.741 635.493 255.089 633.62 256.942C631.108 259.428 627.677 260.848 624.081 260.891C620.485 260.934 617.019 259.596 614.444 257.171Z" fill="#F11C1C"/>
</g>
<defs>
<clipPath id="clip0">
<rect width="842" height="584" fill="white"/>
</clipPath>
</defs>
</svg>
